<svg width="40" height="37" viewBox="0 0 40 37" fill="none" xmlns="http://www.w3.org/2000/svg">
<path d="M20.9324 8.96514L21.0277 8.99466L21.0343 8.98677C21.3104 9.01937 21.5715 8.84125 21.6502 8.56535C22.3251 6.20969 24.4491 4.56933 26.809 4.56933C27.1322 4.56933 27.3846 4.29873 27.3846 3.97724C27.3846 3.65575 27.1322 3.38516 26.809 3.38516C23.8374 3.38516 21.3456 5.44027 20.5463 8.23079C20.4578 8.53913 20.6253 8.86997 20.9324 8.96514Z" fill="#FEAF00" stroke="#F9FFF9" stroke-width="0.3"/>
<path d="M32.7661 25.6396H30.213C29.978 25.6396 29.7874 25.4416 29.7874 25.1975C29.7874 24.9534 29.978 24.7554 30.213 24.7554H32.7661C36.2855 24.7554 39.1491 21.7805 39.1491 18.1242C39.1491 14.4679 36.2855 11.4929 32.7661 11.4929H32.7047C32.5813 11.4929 32.464 11.4374 32.3832 11.3404C32.3023 11.2435 32.2658 11.115 32.2835 10.988C32.3215 10.7127 32.3406 10.4361 32.3406 10.1667C32.3406 6.99794 29.8588 4.41961 26.8087 4.41961C25.6221 4.41961 24.4904 4.80485 23.536 5.53396C23.3263 5.69406 23.0284 5.62302 22.9071 5.38334C20.2041 0.0360679 13.1441 -0.682016 9.48388 3.96964C7.94197 5.92932 7.33613 8.47854 7.82159 10.9631C7.87509 11.2375 7.67296 11.4933 7.40457 11.4933H7.23405C3.71464 11.4933 0.851102 14.4682 0.851102 18.1245C0.851102 21.7808 3.71464 24.7557 7.23405 24.7557H9.7872C10.0222 24.7557 10.2127 24.9537 10.2127 25.1978C10.2127 25.4419 10.0222 25.6399 9.7872 25.6399H7.23405C3.24528 25.6399 0 22.2684 0 18.1245C0 14.0968 3.06562 10.7989 6.90001 10.617C6.53983 8.03929 7.22858 5.43921 8.82491 3.4101C12.7437 -1.57057 20.2539 -1.0123 23.4286 4.54151C24.4414 3.88185 25.6003 3.5358 26.8085 3.5358C30.504 3.5358 33.4322 6.80344 33.176 10.6211C36.9751 10.8424 40 14.123 40 18.1241C40 22.2684 36.7547 25.6396 32.7659 25.6396L32.7661 25.6396Z" fill="#FEAF00"/>
<path d="M9.15464 24.9478C9.15464 31.1194 13.9889 36.15 19.943 36.15C25.8973 36.15 30.7314 31.1193 30.7314 24.9478C30.7314 18.7762 25.8973 13.7456 19.943 13.7456C13.9888 13.7456 9.15464 18.7763 9.15464 24.9478ZM10.3059 24.9478C10.3059 19.4188 14.6346 14.93 19.943 14.93C25.2514 14.93 29.5802 19.4187 29.5802 24.9478C29.5802 30.4768 25.2514 34.9656 19.943 34.9656C14.6347 34.9656 10.3059 30.4769 10.3059 24.9478Z" fill="#FEAF00" stroke="#F9FFF9" stroke-width="0.3"/>
<path d="M19.676 29.3971C19.676 29.6532 19.8773 29.8707 20.1375 29.8707C20.3976 29.8707 20.599 29.6535 20.599 29.3971V20.982C20.599 20.7259 20.3977 20.5083 20.1375 20.5083C19.8773 20.5083 19.676 20.7259 19.676 20.982V29.3971Z" fill="#FEAF00" stroke="#FEAF00" stroke-width="0.3"/>
<path d="M20.1375 21.6568L22.3014 23.9049C22.3909 23.9979 22.5101 24.0456 22.6297 24.0456L20.1375 21.6568ZM20.1375 21.6568L17.9737 23.9048C17.9736 23.9048 17.9736 23.9048 17.9736 23.9048C17.9736 23.9049 17.9736 23.9049 17.9736 23.9049C17.793 24.0927 17.4975 24.0925 17.3168 23.9049C17.1392 23.7203 17.1392 23.4236 17.3168 23.2391L19.809 20.65C19.809 20.65 19.809 20.65 19.809 20.6499L19.8091 20.6499L19.9172 20.7539L20.1375 21.6568Z" fill="#FEAF00" stroke="#FEAF00" stroke-width="0.3"/>
</svg>
